<svg width="375" height="51" viewBox="0 0 375 51" fill="none" xmlns="http://www.w3.org/2000/svg">
<path fill-rule="evenodd" clip-rule="evenodd" d="M375 51L339.423 30.7288C339.423 30.7288 312.5 21.348 280.769 22.4263C250 23.5045 218.269 21.348 187.5 18.1132C155.769 14.8785 125 10.5655 93.2692 15.9567C62.5 21.348 30.7692 35.9044 15.3846 43.4522L0 51V0.322033H15.3846C30.7692 0.322033 62.5 0.322033 93.2692 0.322033C125 0.322033 155.769 0.322033 187.5 0.322033C218.269 0.322033 250 0.322033 280.769 0.322033C312.5 0.322033 343.269 0.322033 359.615 0.322033H375V51Z" fill="#045646"/>
</svg>
